<?xml version="1.0" standalone="no"?><!DOCTYPE svg PUBLIC "-//W3C//DTD SVG 1.1//EN" "http://www.w3.org/Graphics/SVG/1.1/DTD/svg11.dtd"><svg t="1482742272473" class="icon" style="" viewBox="0 0 1024 1024" version="1.1" xmlns="http://www.w3.org/2000/svg" p-id="8587" xmlns:xlink="http://www.w3.org/1999/xlink" width="30" height="30"><defs><style type="text/css"></style></defs><path d="M655.182027 304.425408c-38.241976-38.241976-89.107457-59.305711-143.17998-59.305711-54.094012 0-104.939027 21.063735-143.201469 59.305711-38.22765 38.241976-59.315944 89.086991-59.315944 143.17998 0 54.104245 21.088294 104.956424 59.315944 143.201469 6.250354 6.240121 12.850679 12.027941 19.724227 17.342993l0 151.805428c-0.054235 0.431835-0.068562 0.884137-0.068562 1.326205 0 0.465604 0.014326 0.89744 0.068562 1.356904l0 0.691755 0.074701 0c1.007957 8.755408 8.429996 15.550161 17.455557 15.550161 3.6399 0 7.052626-1.110287 9.868765-3.032056l0 0.020466 89.703021-55.665811c2.220574-1.048889 4.646833-1.63422 7.236821-1.63422 2.87856 0 5.592368 0.74292 7.977695 2.01796l89.086991 55.282071 0 0c2.795673 1.870604 6.16849 2.980891 9.807367 2.980891 9.518794 0 17.270339-7.607258 17.557888-17.095353l0.034792 0L637.328403 606.679359c6.209422-4.892427 12.172227-10.194176 17.8526-15.872502 38.241976-38.245046 59.329247-89.097224 59.329247-143.201469C714.512297 393.511375 693.425026 342.667384 655.182027 304.425408L655.182027 304.425408zM597.819574 721.836099l-72.207555-44.790112c-3.501754-2.713808-7.853875-4.327562-12.623505-4.327562-4.54348 0-8.723685 1.459235-12.137435 3.929496l-72.816422 45.188178 0-89.837074c26.022677 11.883655 54.504358 18.134009 83.96739 18.134009 30.140461 0 59.295478-6.568602 85.817528-18.977213L597.819574 721.836099 597.819574 721.836099zM512.002047 610.589412c-89.895403 0-162.979932-73.104995-162.979932-162.984025 0-89.867774 73.083505-162.949232 162.979932-162.949232 89.847308 0 162.979932 73.081459 162.979932 162.949232C674.981978 537.484418 601.849354 610.589412 512.002047 610.589412L512.002047 610.589412zM512.002047 610.589412M512 947.106726c-239.916185 0-435.106726-195.187471-435.106726-435.106726S272.083815 76.893274 512 76.893274s435.106726 195.187471 435.106726 435.106726S751.916185 947.106726 512 947.106726zM512 104.96461c-224.440725 0-407.03539 182.594665-407.03539 407.03539s182.594665 407.03539 407.03539 407.03539S919.03539 736.440725 919.03539 512 736.440725 104.96461 512 104.96461z" p-id="8588"></path></svg>