<?xml version="1.0" standalone="no"?><!DOCTYPE svg PUBLIC "-//W3C//DTD SVG 1.1//EN" "http://www.w3.org/Graphics/SVG/1.1/DTD/svg11.dtd"><svg t="1482744457543" class="icon" style="" viewBox="0 0 1024 1024" version="1.1" xmlns="http://www.w3.org/2000/svg" p-id="9259" xmlns:xlink="http://www.w3.org/1999/xlink" width="30" height="30"><defs><style type="text/css"></style></defs><path d="M512 0C229.2288 0 0 229.2288 0 512s229.2288 512 512 512 512-229.2288 512-512S794.7712 0 512 0zM789.7984 307.904l-278.1312 432.6592c-1.0944 7.1552-3.6608 14.1248-8.928 19.648l-11.3536 11.9104-5.0112 7.808c-9.5616 14.8736-27.3792 19.6928-42.8992 13.7024-1.0432-0.3904-2.016-0.8064-3.0336-1.2992-1.5552-0.768-3.2448-0.9856-4.7296-2.0096l-30.4192-21.088c-9.1328-6.3232-14.2656-16.1984-15.6032-26.656L238.0544 583.5328c-13.2928-13.9392-13.2928-36.5376 0-50.4832l24.064-25.2352c13.2928-13.9392 34.8352-13.9392 48.128 0l130.8736 137.2736 257.4144-400.4288c11.1616-17.376 33.8432-22.0224 50.6496-10.3872l30.4256 21.0816C796.4032 267.0016 800.9728 290.528 789.7984 307.904z" p-id="9260" fill="#1afa29"></path></svg>