<?xml version="1.0" standalone="no"?><!DOCTYPE svg PUBLIC "-//W3C//DTD SVG 1.1//EN" "http://www.w3.org/Graphics/SVG/1.1/DTD/svg11.dtd"><svg t="1482804497700" class="icon" style="" viewBox="0 0 1024 1024" version="1.1" xmlns="http://www.w3.org/2000/svg" p-id="3895" xmlns:xlink="http://www.w3.org/1999/xlink" width="25" height="25"><defs><style type="text/css"></style></defs><path d="M830.439074 859.58437c-18.325367-131.954311-107.8708-232.498238-231.726665-264.730337C685.350628 560.119951 746.543316 475.371778 746.543316 376.320854c0-129.98547-105.374956-235.360426-235.360426-235.360426-129.984447 0-235.360426 105.374956-235.360426 235.360426 0 99.105159 61.260226 183.894264 147.97417 218.591507C299.338041 627.394147 209.584877 728.884632 191.995267 861.889879c-0.440022 1.455141-0.681522 2.996241-0.681522 4.594645 0 8.760524 7.100722 15.861246 15.861246 15.861246s15.861246-7.100722 15.861246-15.861246c0-0.873903-0.089028-1.726318-0.225127-2.562359C243.302817 722.902384 364.666932 614.574167 511.367085 614.574167c147.59043 0 269.553179 109.640096 288.935622 251.910357l0.00921 0c0 8.760524 7.100722 15.861246 15.861246 15.861246s15.861246-7.100722 15.861246-15.861246C832.035432 864.008122 831.451124 861.672938 830.439074 859.58437zM306.52165 376.320854c0-107.379613 97.281627-204.66124 204.66124-204.66124 107.380636 0 204.66124 97.281627 204.66124 204.66124 0 107.380636-97.280604 204.66124-204.66124 204.66124C403.803277 580.982094 306.52165 483.70149 306.52165 376.320854z" p-id="3896"></path></svg>