<?xml version="1.0" standalone="no"?><!DOCTYPE svg PUBLIC "-//W3C//DTD SVG 1.1//EN" "http://www.w3.org/Graphics/SVG/1.1/DTD/svg11.dtd"><svg t="1482804618523" class="icon" style="" viewBox="0 0 1024 1024" version="1.1" xmlns="http://www.w3.org/2000/svg" p-id="6690" xmlns:xlink="http://www.w3.org/1999/xlink" width="25" height="25"><defs><style type="text/css"></style></defs><path d="M512 30.72C243.712 30.72 25.6 248.832 25.6 517.12S243.712 1003.52 512 1003.52s486.4-218.112 486.4-486.4S780.288 30.72 512 30.72zM635.904 729.088c-16.384 19.456-35.84 35.84-56.32 51.2-16.384 11.264-33.792 22.528-51.2 32.768-11.264 7.168-23.552 6.144-35.84-1.024-28.672-18.432-56.32-38.912-81.92-62.464-7.168-7.168-14.336-14.336-20.48-20.48-13.312-13.312-16.384-27.648-14.336-46.08 14.336-96.256 37.888-191.488 62.464-285.696 2.048-6.144 3.072-13.312 6.144-19.456 2.048-5.12 1.024-9.216-2.048-13.312-17.408-24.576-29.696-52.224-39.936-79.872-10.24-28.672 7.168-56.32 34.816-59.392 23.552-2.048 47.104-5.12 70.656-8.192 1.024 0 3.072 0 4.096 0 25.6 0 51.2 4.096 76.8 8.192 25.6 5.12 40.96 29.696 33.792 54.272-9.216 30.72-22.528 59.392-41.984 86.016-2.048 3.072-3.072 6.144-2.048 11.264 16.384 63.488 32.768 128 47.104 192.512 9.216 38.912 15.36 78.848 21.504 118.784C651.264 703.488 646.144 716.8 635.904 729.088z" p-id="6691"></path><path d="M612.352 614.4c-15.36-78.848-35.84-155.648-57.344-233.472-2.048 0-4.096 0-6.144 0-25.6 0-50.176 0-75.776 0-4.096 0-6.144 1.024-7.168 5.12-28.672 100.352-53.248 200.704-68.608 304.128-1.024 9.216 1.024 16.384 7.168 22.528 27.648 30.72 60.416 55.296 95.232 76.8 8.192 5.12 15.36 4.096 21.504 0 14.336-9.216 28.672-19.456 43.008-29.696 20.48-14.336 38.912-31.744 56.32-50.176 4.096-5.12 7.168-10.24 6.144-16.384C621.568 666.624 617.472 640 612.352 614.4z" p-id="6692"></path><path d="M464.896 355.328c14.336 0 28.672 0 44.032 0 14.336 0 28.672 0 44.032 0 2.048 0 5.12-1.024 7.168-3.072 17.408-23.552 29.696-50.176 38.912-77.824 4.096-11.264-2.048-22.528-14.336-24.576-21.504-4.096-43.008-7.168-64.512-8.192-27.648-2.048-54.272 3.072-80.896 8.192-14.336 3.072-20.48 13.312-16.384 26.624 8.192 26.624 19.456 52.224 35.84 75.776C459.776 353.28 462.848 355.328 464.896 355.328z" p-id="6693"></path></svg>