<?xml version="1.0" standalone="no"?><!DOCTYPE svg PUBLIC "-//W3C//DTD SVG 1.1//EN" "http://www.w3.org/Graphics/SVG/1.1/DTD/svg11.dtd"><svg t="1482804563281" class="icon" style="" viewBox="0 0 1024 1024" version="1.1" xmlns="http://www.w3.org/2000/svg" p-id="4469" xmlns:xlink="http://www.w3.org/1999/xlink" width="25" height="25"><defs><style type="text/css"></style></defs><path d="M242.282 615.078l-115.678 281.75 274.748-123.09 23.341-23.377-158.827-158.834z m624.615-301.799c36.536-36.562 36.536-58.364-0.021-94.922l-63.908-63.911c-36.555-36.556-58.365-36.556-94.905 0l-73.65 73.691 158.829 158.809 73.655-73.667z m-258.967-58.7L292.335 565.06 451.187 723.91l315.566-310.494zM417.379 153.187c-36.56-36.56-95.807-36.56-132.362 0L126.187 312.02l26.457 26.461-0.007 0.007 157.935 157.93 26.479-26.468-38.802-38.805 79.41-79.405-26.493-26.486-79.404 79.445-29.595-29.635 3.145 3.145 52.958-52.954-26.486-26.472-52.961 52.955-39.701-39.718 124.614-124.596c36.555-36.56 58.387-36.56 94.937 0l110.444 110.439 26.471-26.465-118.21-118.212z m450.038 450.022L745.37 481.158l-26.464 26.475L833.18 621.91c36.555 36.56 36.555 58.383 0 94.945L708.586 841.48l-39.711-39.707 65.159-65.16-26.472-26.486-65.163 65.167-26.46-26.461 79.415-79.412-26.49-26.512-79.402 79.445-0.002-0.002-42.64-42.662-26.471 26.468 161.77 161.772 26.467 26.472 26.467-26.472 132.363-132.355c36.555-36.566 36.555-95.812 0.001-132.367z" p-id="4470" fill="#333333"></path></svg>