<?xml version="1.0" standalone="no"?><!DOCTYPE svg PUBLIC "-//W3C//DTD SVG 1.1//EN" "http://www.w3.org/Graphics/SVG/1.1/DTD/svg11.dtd"><svg t="1482570098181" class="icon" style="" viewBox="0 0 1024 1024" version="1.1" xmlns="http://www.w3.org/2000/svg" p-id="5295" xmlns:xlink="http://www.w3.org/1999/xlink" width="30" height="30"><defs><style type="text/css"></style></defs><path d="M877.056 846.336c0 0 0.170667-0.170667 0.170667-0.170667 75.776-82.602667 120.661333-186.709333 128.512-298.154667 0-0.682667 0-1.365333 0.170667-2.048 0.170667-3.242667 0.512-6.485333 0.512-9.898667 0-1.706667 0.170667-3.413333 0.170667-5.12 0.170667-2.389333 0.170667-4.608 0.170667-6.997333 0.170667-4.096 0.170667-8.021333 0.170667-12.117333 0-132.266667-51.541333-256.512-145.066667-350.037333S644.266667 16.896 512 16.896s-256.512 51.541333-350.037333 145.066667S16.896 379.733333 16.896 512c0 4.096 0 8.021333 0.170667 11.946667 0 2.389333 0.170667 4.608 0.170667 6.826667 0 1.706667 0.170667 3.242667 0.170667 4.949333 0.170667 3.242667 0.341333 6.485333 0.512 9.728 0 0.682667 0 1.194667 0.170667 1.877333 8.192 115.2 55.637333 222.549333 135.850667 306.517333l17.578667 18.602667 0.341333-1.024c92.330667 87.381333 212.48 135.338667 340.138667 135.338667 125.610667 0 244.053333-46.421333 335.701333-131.242667l0.341333 1.024 20.992-21.845333c0 0 0.170667-0.170667 0.170667-0.170667C871.765333 852.138667 874.496 849.237333 877.056 846.336zM186.026667 186.026667c87.04-87.04 202.752-134.997333 325.973333-134.997333S750.933333 98.986667 837.973333 186.026667s134.997333 202.752 134.997333 325.973333c0 3.584 0 7.338667-0.170667 10.922667 0 1.365333-0.170667 2.730667-0.170667 4.096 0 2.218667-0.170667 4.437333-0.170667 6.656 0 1.706667-0.170667 3.584-0.341333 5.290667-0.170667 1.706667-0.170667 3.413333-0.341333 5.290667-0.170667 2.048-0.341333 4.096-0.512 6.144-0.170667 1.365333-0.170667 2.730667-0.341333 4.266667-0.170667 2.389333-0.512 4.608-0.682667 6.997333-0.170667 1.024-0.170667 2.048-0.341333 3.072-0.341333 2.730667-0.682667 5.290667-1.024 7.850667 0 0.512-0.170667 1.024-0.170667 1.536-11.776 86.869333-47.957333 168.448-105.130667 235.690667-22.357333-57.685333-64.512-109.397333-120.832-147.968-38.4-26.112-82.432-45.397333-129.365333-57.002667 55.808-33.621333 93.013333-94.72 93.013333-164.522667 0-105.984-86.016-192-192-192S322.56 334.506667 322.56 440.490667c0 68.437333 35.84 128.682667 89.941333 162.645333-48.64 11.093333-94.037333 30.378667-134.485333 57.514667-55.808 37.546667-97.962667 88.405333-121.173333 145.066667-57.514667-69.461333-93.184-153.6-102.912-242.858667 0-0.341333-0.170667-0.853333-0.170667-1.194667-0.341333-2.730667-0.512-5.461333-0.853333-8.021333-0.170667-1.024-0.170667-2.048-0.341333-3.072-0.170667-2.218667-0.341333-4.608-0.512-6.826667-0.170667-1.536-0.170667-3.072-0.341333-4.608-0.170667-1.877333-0.170667-3.754667-0.341333-5.802667-0.170667-2.048-0.170667-4.096-0.170667-6.314667 0-1.365333-0.170667-2.901333-0.170667-4.266667 0-3.584-0.170667-7.168-0.170667-10.752C51.029333 388.949333 98.986667 273.066667 186.026667 186.026667z" p-id="5296" fill="#333333"></path></svg>