<?xml version="1.0" standalone="no"?><!DOCTYPE svg PUBLIC "-//W3C//DTD SVG 1.1//EN" "http://www.w3.org/Graphics/SVG/1.1/DTD/svg11.dtd"><svg t="1482737190462" class="icon" style="" viewBox="0 0 1024 1024" version="1.1" xmlns="http://www.w3.org/2000/svg" p-id="5823" xmlns:xlink="http://www.w3.org/1999/xlink" width="30" height="30"><defs><style type="text/css"></style></defs><path d="M903.6288 294.2976 494.976 294.2976l-123.2896-198.0672L113.7152 96.2304c-34.2528 0-62.1312 31.5904-62.1312 70.4l0 198.0672 0 293.9136 0 203.1616c0 38.8352 31.5648 70.4 70.4 70.4l781.6448 0c38.8352 0 70.4-31.5648 70.4-70.4L974.0288 364.6976C974.0288 325.8624 942.464 294.2976 903.6288 294.2976zM89.984 302.336 89.984 166.6304c0-17.3568 10.88-32 23.7312-32l236.6208 0 99.4048 159.6672L121.984 294.2976C110.4128 294.2976 99.6352 297.3696 89.984 302.336zM256.896 734.3104c-15.5136 0-28.1088-12.5952-28.1088-28.1088 0-15.5136 12.5952-28.1088 28.1088-28.1088 15.5136 0 28.1088 12.5952 28.1088 28.1088C285.0048 721.7152 272.4352 734.3104 256.896 734.3104zM256.896 552.192c-15.5136 0-28.1088-12.5952-28.1088-28.1088 0-15.5136 12.5952-28.1088 28.1088-28.1088 15.5136 0 28.1088 12.5952 28.1088 28.1088C285.0048 539.5968 272.4352 552.192 256.896 552.192zM796.8256 725.376 388.9664 725.376c-10.5984 0-19.2-8.6016-19.2-19.2s8.6016-19.2 19.2-19.2l407.8848 0c10.5984 0 19.2 8.6016 19.2 19.2S807.4496 725.376 796.8256 725.376zM796.8256 543.2832 388.9664 543.2832c-10.5984 0-19.2-8.6016-19.2-19.2s8.6016-19.2 19.2-19.2l407.8848 0c10.5984 0 19.2 8.6016 19.2 19.2S807.4496 543.2832 796.8256 543.2832z" p-id="5824"></path></svg>