<?xml version="1.0" standalone="no"?><!DOCTYPE svg PUBLIC "-//W3C//DTD SVG 1.1//EN" "http://www.w3.org/Graphics/SVG/1.1/DTD/svg11.dtd"><svg t="1482716379486" class="icon" style="" viewBox="0 0 1092 1024" version="1.1" xmlns="http://www.w3.org/2000/svg" p-id="1820" xmlns:xlink="http://www.w3.org/1999/xlink" width="18" height="18"><defs><style type="text/css"></style></defs><path d="M955.741618 136.535405h-204.8V68.264595C750.941618 30.720932 720.214473 0 682.664595 0H409.6c-37.549877 0-68.264595 30.720932-68.264595 68.264595v68.27081H136.535405C61.441864 136.535405 0 197.971055 0 273.064595v614.4c0 75.09354 61.441864 136.535405 136.535405 136.535405H955.741618c75.09354 0 136.529191-61.441864 136.529191-136.535405V273.064595c-0.006214-75.09354-61.43565-136.529191-136.529191-136.52919m-546.141618-34.138512c0-18.771832 15.360466-34.132298 34.132298-34.132298h204.8c18.771832 0 34.132298 15.360466 34.132297 34.132298v34.138512H409.6v-34.138512z m614.4 785.067702c0 37.549877-30.714718 68.264595-68.258382 68.264596H136.535405c-37.549877 0-68.270809-30.714718-68.27081-68.264596V511.996893h346.45556c-3.417579 10.240311-5.120155 22.189411-5.120155 34.132298 0 75.099754 61.441864 136.541618 136.535405 136.541618 75.087327 0 136.529191-61.441864 136.52919-136.541618 0-11.942887-1.702576-23.891987-5.120155-34.132298h346.45556v375.467702zM477.864595 546.129191a61.578567 61.578567 0 0 1 10.240311-34.132298h117.763573c5.120155 10.240311 10.240311 22.189411 10.240311 34.132298 0 37.556091-30.720932 68.270809-68.264596 68.270809-39.252453 0-69.973385-30.714718-69.979599-68.270809z m546.135405-102.396893H68.264595V273.064595c0-37.543663 30.720932-68.264595 68.27081-68.264595H955.741618c37.543663 0 68.258382 30.720932 68.258382 68.264595v170.667703z" fill="#333333" p-id="1821"></path></svg>