<?xml version="1.0" standalone="no"?><!DOCTYPE svg PUBLIC "-//W3C//DTD SVG 1.1//EN" "http://www.w3.org/Graphics/SVG/1.1/DTD/svg11.dtd"><svg t="1482570598302" class="icon" style="" viewBox="0 0 1024 1024" version="1.1" xmlns="http://www.w3.org/2000/svg" p-id="8974" xmlns:xlink="http://www.w3.org/1999/xlink" width="30" height="30"><defs><style type="text/css"></style></defs><path d="M408.283136 428.102656c29.86496-29.894656 55.898112-48.295936 2.967552-114.188288-52.932608-65.890304-88.241152-15.292416-117.21216 13.68064-33.378304 33.405952-1.758208 157.930496 121.329664 281.042944C538.456064 731.693056 663.011328 763.37152 696.418304 729.936896c28.971008-28.944384 79.541248-64.22016 13.68064-117.179392-65.860608-52.96128-84.293632-26.927104-114.188288 2.963456-20.908032 20.822016-73.696256-22.749184-119.313408-68.337664C430.979072 501.794816 387.376128 448.979968 408.283136 428.102656zM512 998.4c268.63104 0 486.4-217.76896 486.4-486.4S780.63104 25.6 512 25.6 25.6 243.36896 25.6 512 243.36896 998.4 512 998.4zM512 1024C229.230592 1024 0 794.769408 0 512S229.230592 0 512 0s512 229.230592 512 512S794.769408 1024 512 1024z" p-id="8975" fill="#333333"></path></svg>