<?xml version="1.0" standalone="no"?><!DOCTYPE svg PUBLIC "-//W3C//DTD SVG 1.1//EN" "http://www.w3.org/Graphics/SVG/1.1/DTD/svg11.dtd"><svg t="1482716448692" class="icon" style="" viewBox="0 0 1024 1024" version="1.1" xmlns="http://www.w3.org/2000/svg" p-id="2632" xmlns:xlink="http://www.w3.org/1999/xlink" width="200" height="200"><defs><style type="text/css"></style></defs><path d="M831.943334 339.103208l97.233532 73.890894 13.596669-17.165961c2.752694-3.463891 3.803629-7.731078 3.257184-11.848862-0.503467-4.117784-2.563382-7.982812-6.118348-10.692526l-71.370491-54.250578c-3.510964-2.710738-7.877411-3.717671-12.05557-3.214205-4.206812 0.548492-8.220219 2.607384-10.929934 6.117324L831.943334 339.103208 831.943334 339.103208zM803.494399 375.092887l21.076014 16.055674-110.722754 139.838885-21.077038-16.071024L803.494399 375.092887 803.494399 375.092887zM663.16535 549.857213l-17.669428 82.662675 39.647999 30.153764 80.406285-38.446637c-14.855336-15.639189-35.632545-24.385387-61.538565-27.290553C692.770622 574.397119 678.819888 559.439452 663.16535 549.857213L663.16535 549.857213zM785.365506 658.823973l-170.58719 81.662905-28.717042-21.681812 38.654368-182.146457 13.09218-16.513092 115.995851-146.564054 46.429449-58.560744 13.596669-17.163915c9.640568-12.204973 23.38664-19.387559 37.734416-21.237697 14.369266-1.807159 29.476335 1.701758 41.768289 11.092639l71.373561 54.264904c12.331863 9.375531 19.559475 22.777773 21.322631 36.877909 1.766226 14.159488-1.952468 29.014824-11.596106 41.158399C911.403061 499.617995 848.414471 579.210751 785.365506 658.823973z" p-id="2633"></path><path d="M623.012861 775.559675l0 69.579705-334.270133 0-43.261293-148.163481-4.116761-14.305821-14.262842 5.094018-100.07423 36.198433L127.027603 203.085348l495.986281 0 0 250.146177 65.745377 0L688.759261 170.872692l0-32.228005-32.821523 0-561.729611 0-32.879851 0 0 32.228005 0 585.819263 0 16.173354 13.344936 9.715269 165.283394 120.55775 8.783037 6.426363 10.737552 0 396.460544 0 32.821523 0 0-32.226982 0-101.777011L623.012861 775.560698zM138.668735 749.168608l83.915201-30.332842 33.93181 116.29261L138.668735 749.168608z" p-id="2634"></path><path d="M545.26001 473.108225l-335.515496 0 0 26.762527 335.515496 0L545.26001 473.108225z" p-id="2635"></path><path d="M209.744513 580.278059l335.515496 0 0-26.806529-335.515496 0L209.744513 580.278059z" p-id="2636"></path><path d="M545.26001 385.385301l-335.515496 0 0 26.795273 335.515496 0L545.26001 385.385301z" p-id="2637"></path><path d="M545.26001 304.98004l-335.515496 0 0 26.852578 335.515496 0L545.26001 304.98004z" p-id="2638"></path></svg>